<svg xmlns="http://www.w3.org/2000/svg" viewBox="0 0 500 500"><g id="freepik--Floor--inject-21"><path id="freepik--floor--inject-21" d="M77.66,249.85c-95.18,55-95.17,144,0,199s249.49,55,344.67,0,95.17-144,0-199S172.84,194.89,77.66,249.85Z" style="fill:#fafafa"></path></g><g id="freepik--Formula--inject-21"><g id="freepik--Graphics--inject-21"><path d="M55.23,144.26A71,71,0,0,0,55,153c0,2.94,0,5.87-.08,8.8l-.06,8.77c0,1.49,0,3,0,4.46,0,.75,0,1.49,0,2.24s-.16,1.36.16,1.83c0,.05.27.06.32-.07a5.35,5.35,0,0,0,.19-2.07c0-.74,0-1.49,0-2.23,0-1.49,0-3,0-4.46q0-4.32.07-8.62t0-8.59a65,65,0,0,0-.08-8.84c0-.1-.32-.08-.34.07Z" style="fill:#74ED96"></path><path d="M37.44,150.48c-.14,2.26.1,4.41.17,6.6s.11,4.35.13,6.54,0,4.26,0,6.4a65.15,65.15,0,0,0-.11,6.68c0,.16.52,0,.55-.17a49,49,0,0,0,.19-6.6q0-3.36,0-6.69t-.14-6.54a46.7,46.7,0,0,0-.38-6.33c0-.13-.4-.07-.41.11Z" style="fill:#74ED96"></path><path d="M35.29,152.39c4.47.16,9.16,0,13.74,0l13.82,0c.32,0,.78-.47.41-.47L49.45,152c-4.62,0-9.2-.08-13.94.13-.25,0-.46.3-.22.31Z" style="fill:#74ED96"></path><path d="M29.79,173.63c7.45.4,6.37.24,14.11.22s15.29-.09,22.94-.14q6.75,0,13.46-.05c.31,0,.78-.45.43-.45-15.36,0-23.7.27-39,.21-4.48,0-7.1-.17-11.64-.1-.26,0-.56.3-.28.31Z" style="fill:#74ED96"></path><path d="M30.6,139.59c1.07,3.35,3.15,6.23,5.18,9A39.72,39.72,0,0,0,43,156a63.71,63.71,0,0,0,20.21,10.7c4.41,1.46,9.13,3,14.74,3.08.23,0,.4-.21.2-.24-2.18-.38-4.48-.6-6.58-1.06-2.32-.51-4.53-1.14-6.69-1.82a74.49,74.49,0,0,1-11-4.44,53.73,53.73,0,0,1-17-13.2,49.92,49.92,0,0,1-5.91-9.5c-.05-.09-.41,0-.36.12Z" style="fill:#74ED96"></path><path d="M51.78,148.14A6.94,6.94,0,0,0,53,146.68a6.14,6.14,0,0,0,.44-.78c.07-.14.13-.28.19-.42s.15-.3.08-.38a.32.32,0,0,0-.4.09,1.14,1.14,0,0,0-.18.39c0,.13-.11.25-.17.38a5.65,5.65,0,0,1-.42.75,7.61,7.61,0,0,1-1.12,1.36c-.19.18.16.23.33.07Z" style="fill:#74ED96"></path><path d="M50.67,145.35a.84.84,0,0,0,.21.42,2.63,2.63,0,0,0,.28.4,4,4,0,0,0,.67.63c.11.09.23.25.47.21a.39.39,0,0,0,.3-.19c.06-.11,0-.15-.1-.2a4.6,4.6,0,0,1-.71-.6c-.12-.13-.24-.25-.35-.39a2.07,2.07,0,0,0-.38-.46c-.08-.06-.4,0-.39.18Z" style="fill:#74ED96"></path><path d="M38.17,147.55c-.26.23-.11.44,0,.6s.22.42.34.63a10.29,10.29,0,0,0,.81,1.18c.09.12.39,0,.55-.14a3.85,3.85,0,0,0,.68-1.22,3.16,3.16,0,0,0,.42-1.23c0-.22-.62,0-.61.2a3,3,0,0,1-.39,1.14,3.73,3.73,0,0,1-.61,1.11l.55-.15c-.27-.35-.52-.72-.76-1.1s-.4-.7-.63-1v.09l0-.06c.06-.13-.22-.14-.35,0Z" style="fill:#74ED96"></path><path d="M51,165.3a2.17,2.17,0,0,0,.52.53l.55.47.55.47.27.23c.09.08.23.15.27.25l.09-.19,0,0,.33-.14h-.07c-.11,0-.31.1-.32.2.48,0,.68-.11.62-.25l-.06-.06-.15-.12-.31-.26-.59-.48-.6-.47a2.8,2.8,0,0,0-.63-.43c-.1,0-.49.07-.42.21Z" style="fill:#74ED96"></path><path d="M53,165.07c-.64.65-1.23,1.3-1.83,2-.15.15-.46.43-.22.48a.63.63,0,0,0,.49-.22c.07-.06.13-.14.2-.21.29-.33.6-.66.9-1s.57-.64.83-1-.19-.24-.37-.06Z" style="fill:#74ED96"></path><path d="M60.38,157.4a9,9,0,0,0,1.71,2.28c.13.15.7-.2.54-.36-.66-.68-1.22-1.42-1.88-2.09-.08-.09-.43,0-.37.17Z" style="fill:#74ED96"></path><path d="M63.51,157.26a5.73,5.73,0,0,0-.56,1c-.17.31-.35.62-.55.94s-.38.58-.6.87a5.71,5.71,0,0,1-.8.94c-.19.16,0,.27.21.17q-.21,0-.09,0l.06,0a.81.81,0,0,0,.21-.1,1.27,1.27,0,0,0,.28-.23,5.74,5.74,0,0,0,.4-.49c.27-.34.52-.69.75-1s.44-.71.63-1.06c.11-.2.2-.41.3-.61a.84.84,0,0,0,.13-.45c0-.09-.25-.12-.37,0Z" style="fill:#74ED96"></path><path d="M65.39,159.26h.88l.79,0a.51.51,0,0,0,.36-.17c.08-.11,0-.16-.1-.17h-.77a4.35,4.35,0,0,0-.5,0l-.55.06c-.09,0-.21,0-.24.13s0,.12.13.11Z" style="fill:#74ED96"></path><path d="M65.52,160.27a3.92,3.92,0,0,0,.49,0h.47l.91,0a.62.62,0,0,0,.42-.19c.09-.1,0-.21-.08-.2l-1,0c-.33,0-.68,0-1,.08a.38.38,0,0,0-.25.15c0,.07,0,.12.08.13Z" style="fill:#74ED96"></path><path d="M71.51,157.92a1.16,1.16,0,0,0-1.39-.3,2,2,0,0,0-1.27,1.18,1.15,1.15,0,0,0,.22,1.39,1.8,1.8,0,0,0,1.61.48,2.68,2.68,0,0,0,1.19-.52c.28-.23.42-.54.2-.65-.06,0-.29,0-.36.1a1.65,1.65,0,0,1-.21.42,1,1,0,0,1-.41.19,1.15,1.15,0,0,1-.75,0,2.81,2.81,0,0,1-.64-.36.78.78,0,0,1-.35-.57,1.42,1.42,0,0,1,.12-.68,1.25,1.25,0,0,1,.4-.56.91.91,0,0,1,.55-.14,1.48,1.48,0,0,1,.7.2c.12.07.46-.07.39-.21Z" style="fill:#74ED96"></path><path d="M72.93,158.89c.35-.07.93-.16,1.1,0s-.38.62-.66.76-.11.25,0,.24c.76-.05,1.32.35,1.26.92a.55.55,0,0,1-.56.5c-.4,0-.47-.33-.76-.46-.06,0-.25,0-.3.09-.19.43.34.68.77.71a1.43,1.43,0,0,0,1.26-.67.81.81,0,0,0-.19-1,1.58,1.58,0,0,0-1.33-.37,2,2,0,0,1,0,.24c.47-.24,1.09-.83.92-1.1s-1.05-.23-1.64,0c-.21.07-.06.21.06.19Z" style="fill:#74ED96"></path><path d="M58.49,175.87h0a.26.26,0,0,0,.26,0c.08-.07,0-.14,0-.15a.94.94,0,0,0-.51,0,1.74,1.74,0,0,0-.47.16,1.2,1.2,0,0,0-.53.55.86.86,0,0,0,.25,1,1.27,1.27,0,0,0,1.35.14,1,1,0,0,0,.68-1,1,1,0,0,0-.36-.52,1.15,1.15,0,0,0-.86-.24c-.16,0-.33.19-.21.25s.34.1.48.18a1,1,0,0,1,.33.3.64.64,0,0,1,.11.41.5.5,0,0,1-.17.36.47.47,0,0,1-.33.1.86.86,0,0,1-.41-.11.7.7,0,0,1-.41-.69.58.58,0,0,1,.16-.4,1,1,0,0,1,.8-.2,1.36,1.36,0,0,0,0-.2l-.14,0c-.12,0-.06.13,0,.14Z" style="fill:#74ED96"></path><path d="M40.28,177.73c-.15-.3-.79-.26-1.3.1a1.2,1.2,0,0,0-.56,1,1,1,0,0,0,.44.79,1.54,1.54,0,0,0,1.1.29,2,2,0,0,0,1.49-.89c.11-.21-.36-.12-.5.06a1.1,1.1,0,0,1-1.76,0,.73.73,0,0,1-.08-.8.65.65,0,0,1,.29-.28.49.49,0,0,1,.16-.05.53.53,0,0,1,.36,0,.28.28,0,0,0,.24,0c.09-.05.14-.12.12-.17Z" style="fill:#74ED96"></path><path d="M77.75,175.63c-.06.17.09.23.21.31a5,5,0,0,0,.47.33l1,.64,1,.59.48.29a.85.85,0,0,0,.64.19c.25,0,.36-.3.12-.28h-.08c.08,0,.24.06.23,0a.16.16,0,0,0-.09-.07l-.24-.14-.49-.29c-.34-.19-.68-.38-1-.58L79,176l-.49-.27a1.21,1.21,0,0,0-.58-.2s-.14,0-.16.09Z" style="fill:#74ED96"></path><path d="M81.12,174.92c-.54.57-1,1.15-1.59,1.72l-.77.73c-.29.25-.61.5-.89.76-.1.1-.06.18,0,.2a.54.54,0,0,0,.38-.12,14.33,14.33,0,0,0,1.78-1.58A11.44,11.44,0,0,0,81.48,175c.09-.15-.22-.2-.36,0Z" style="fill:#74ED96"></path></g></g><g id="freepik--graduation-cap--inject-21"><g id="freepik--graduation-cap--inject-21"><path d="M233.48,267.13v41.72c0,6,5.27,12,15.75,16.6,21,9.19,55,9.19,76,0,10.5-4.6,15.74-10.62,15.74-16.65V267.13h0c.12-6.1-5.11-12.21-15.73-16.86-21-9.19-55-9.19-76,0-10.63,4.65-15.87,10.76-15.74,16.86Z" style="fill:#37474f"></path><path d="M233.49,267.13c-.13-6.1,5.11-12.21,15.74-16.86,21-9.19,55-9.19,76,0,10.62,4.65,15.85,10.76,15.73,16.86h0v26.62c0-11.52-3.81-10.58-16.23-3.55-18.87,10.69-32.51,22.31-53.27,28.43-17.16,5.06-32-6.89-38-13.2v-38.3Z" style="fill:#263238"></path><path d="M233.48,289.21v4.73c0,6,5.27,12,15.75,16.6,21,9.19,55,9.19,76,0,10.58-4.63,15.82-10.72,15.74-16.79v-4.59c0,6-5.24,12-15.74,16.65-21,9.19-55,9.19-76,0C238.75,301.23,233.51,295.22,233.48,289.21Z" style="fill:#74ED96"></path><polygon points="371.73 252.84 287.24 204.09 202.75 252.84 202.75 259.49 287.24 308.27 371.73 259.49 371.73 252.84" style="fill:#37474f"></polygon><polygon points="287.24 308.27 287.24 301.62 371.73 252.84 371.73 259.49 287.24 308.27" style="fill:#fff;opacity:0.2"></polygon><polygon points="287.24 301.62 370.52 254.81 371.73 259.49 371.73 252.84 287.24 301.62" style="fill:#fff;opacity:0.2"></polygon><polygon points="287.24 204.09 202.75 252.84 287.24 301.62 371.73 252.84 287.24 204.09" style="fill:#455a64"></polygon><path d="M242,290.83c0-.55-.27-13.53,1-17.21S249,266.18,259,261.1a106.17,106.17,0,0,1,22.5-8.31l.42,1.85a103.63,103.63,0,0,0-22.06,8.14c-9.42,4.78-14.09,8.31-15.17,11.45-1,2.8-1,12.9-.89,16.56Z" style="fill:#74ED96"></path><path d="M242,290.83c0-.55-.27-13.53,1-17.21S249,266.18,259,261.1a106.17,106.17,0,0,1,22.5-8.31l.42,1.85a103.63,103.63,0,0,0-22.06,8.14c-9.42,4.78-14.09,8.31-15.17,11.45-1,2.8-1,12.9-.89,16.56Z" style="fill:#fff;opacity:0.8"></path><path d="M252.92,330.49c0-9.71-1.61-27.1-6.7-32.15H239.5c-5.08,5.05-6.7,22.44-6.7,32.15h0c0,1.49,1,3,2.95,4.11a15.74,15.74,0,0,0,14.23,0c2-1.13,2.94-2.62,2.94-4.11Z" style="fill:#74ED96"></path><path d="M252.92,330.49c0-9.71-1.61-27.1-6.7-32.15H239.5c-5.08,5.05-6.7,22.44-6.7,32.15h0c0,1.49,1,3,2.95,4.11a15.74,15.74,0,0,0,14.23,0c2-1.13,2.94-2.62,2.94-4.11Z" style="fill:#fff;opacity:0.5"></path><path d="M239.5,298.34a8.87,8.87,0,0,0-1.08,1.35c1.28,1.36,3.24,1.7,5.21,1.86,1.81.15,4,1.74,4.86,9.71s2.57,18.14-.59,21.22-10.2,3-13.9.76h0a7.18,7.18,0,0,0,1.75,1.36,15.74,15.74,0,0,0,14.23,0c2-1.13,2.94-2.62,2.94-4.11h0c0-9.71-1.61-27.1-6.7-32.15Z" style="fill:#74ED96;opacity:0.6000000000000001"></path><path d="M247.9,294.8a5,5,0,1,1-5-5A5,5,0,0,1,247.9,294.8Z" style="fill:#74ED96"></path><path d="M247.9,294.8a5,5,0,1,1-5-5A5,5,0,0,1,247.9,294.8Z" style="fill:#fff;opacity:0.5"></path><path d="M245.79,290.72a4.57,4.57,0,0,1-1.22,6.55,4.93,4.93,0,0,1-6.49-1,5,5,0,1,0,7.71-5.59Z" style="fill:#74ED96;opacity:0.4"></path><path d="M280.45,250.39a3.38,3.38,0,0,1,2-2.77,10.61,10.61,0,0,1,9.6,0,3.36,3.36,0,0,1,2,2.77v2.22a3.37,3.37,0,0,1-2,2.77,10.61,10.61,0,0,1-9.6,0,3.4,3.4,0,0,1-2-2.77Z" style="fill:#263238"></path><path d="M292,253.16c2.65-1.53,2.65-4,0-5.54a10.61,10.61,0,0,0-9.6,0c-2.65,1.53-2.65,4,0,5.54A10.61,10.61,0,0,0,292,253.16Z" style="fill:#37474f"></path></g></g><g id="freepik--Pencil--inject-21"><g id="freepik--pencil--inject-21"><path d="M280.33,358.35,307.41,353a.84.84,0,0,1,.79,1.38l-18.37,20.8Z" style="fill:#ffa8a7"></path><path d="M308.2,354.42a.84.84,0,0,0-.79-1.38l-5.29,1h0a4.66,4.66,0,0,1,2.19,4.32l0,.47Z" style="fill:#263238"></path><path d="M188.86,433.13l2.21-1.27,2.68-1.52,96.08-55.11a12.34,12.34,0,0,0-.75-9c-1.92-4.3-5.65-7.69-8.74-7.89l-96,55.08-5.11,2.93C182.62,414.65,192.26,431.36,188.86,433.13Z" style="fill:#74ED96"></path><path d="M197.31,428.32l4.94-2.85c1.46-.77.63-4.36-1.08-8.07-2.26-4.93-6.71-9.7-8.64-8.67l-3.65,2.09-1.29.77c1.94-1,6.39,3.74,8.64,8.67,1.63,3.56,2.46,7,1.22,8h0A.3.3,0,0,1,197.31,428.32Z" style="fill:#ebebeb"></path><path d="M198.54,427.6c3.39-1.8-6.33-18.53-9.72-16.74l-5,2.84c3.4-1.8,13.11,14.93,9.72,16.73Z" style="fill:#74ED96"></path><path d="M188.86,433.13l4.89-2.79c3.35-1.75-5.89-18-9.43-16.9a.6.6,0,0,0-.2.07l-4.91,2.86C182.62,414.65,192.26,431.36,188.86,433.13Z" style="fill:#ebebeb"></path><path d="M308.32,353.51l-.91-.47-19.65,10.75L186.17,422.08c-.19-.3-.35-.32-.48-.11,2.89,4.5,5.07,10.17,3.17,11.16l2.21-1.27,2.68-1.52,96.08-55.11h0l18.37-20.8A.8.8,0,0,0,308.32,353.51Z" style="opacity:0.15"></path><path d="M168.1,445l20.76-11.88c1.45-.75.65-4.31-1-8-2.24-4.94-6.67-9.76-8.62-8.77h0L158.36,428.3c-4.13,2.38-.33,11.36,4.28,15.38C164.36,445.19,166.28,445.86,168.1,445Z" style="fill:#f28f8f"></path><path d="M169.34,438.57c-1.19-4.68-5-9.27-8.46-10.25a3.39,3.39,0,0,0-3.11.42c-3.12,2.9.51,11.14,4.87,14.94,1.69,1.48,3.56,2.15,5.36,1.37C169.55,444.14,170.15,441.74,169.34,438.57Z" style="opacity:0.1"></path></g></g><g id="freepik--character-1--inject-21"><g id="freepik--Books--inject-21"><g id="freepik--book--inject-21"><polygon points="38.91 388.65 105.23 426.1 207.08 367.66 140.76 330.2 38.91 388.65" style="fill:#74ED96"></polygon><polygon points="38.91 388.65 105.23 426.1 207.08 367.66 140.76 330.2 38.91 388.65" style="opacity:0.6000000000000001"></polygon><path d="M106,423.37,41.86,387c1.59-4.52,1.47-5.89-.33-11.91l63.7,36S106.39,411,106,423.37Z" style="fill:#f5f5f5"></path><path d="M102.12,406.16A12.84,12.84,0,0,1,108,416.24v7.87c0,3.72-2.63,5.22-5.86,3.36l-63.21-35.9v-2.92l62.4,35.23c1.94,1.11,3.51.21,3.51-2l0-7a7.75,7.75,0,0,0-3.52-6.05L38.91,373.56v-3.31Z" style="fill:#74ED96"></path><path d="M102.12,406.16A12.84,12.84,0,0,1,108,416.24v7.87c0,3.72-2.63,5.22-5.86,3.36l-63.21-35.9v-2.92l62.4,35.23c1.94,1.11,3.51.21,3.51-2l0-7a7.75,7.75,0,0,0-3.52-6.05L38.91,373.56v-3.31Z" style="opacity:0.5"></path><path d="M38.91,370.26l101.85-58.45,63.2,35.9a12.85,12.85,0,0,1,5.86,10.08v7.88c0,1.85-.65,3.16-1.72,3.77L106.25,427.88c1.07-.61,1.72-1.91,1.72-3.76v-7.89a12.86,12.86,0,0,0-5.85-10.08Z" style="fill:#74ED96"></path><path d="M38.91,370.26l101.85-58.45,63.2,35.9a12.85,12.85,0,0,1,5.86,10.08v7.88c0,1.85-.65,3.16-1.72,3.77L106.25,427.88c1.07-.61,1.72-1.91,1.72-3.76v-7.89a12.86,12.86,0,0,0-5.85-10.08Z" style="opacity:0.35000000000000003"></path><path d="M106.27,410.5a11.92,11.92,0,0,1,1.71,5.73v7.89c0,1.85-.65,3.15-1.72,3.76L208.1,369.44c1.07-.61,1.72-1.92,1.72-3.77v-7.88a11.83,11.83,0,0,0-1.72-5.73Z" style="fill:#74ED96"></path><path d="M106.27,410.5a11.92,11.92,0,0,1,1.71,5.73v7.89c0,1.85-.65,3.15-1.72,3.76L208.1,369.44c1.07-.61,1.72-1.92,1.72-3.77v-7.88a11.83,11.83,0,0,0-1.72-5.73Z" style="opacity:0.45"></path><path d="M194.35,359.87c1.89,8.24,1.87,11.46,0,17.51l-4.85,2.8c1.87-6.05,1.9-9.27,0-17.51Z" style="fill:#74ED96"></path><path d="M127.54,398.26c1.9,8.24,1.88,11.35,0,17.4l-4.85,2.8c1.87-6,1.89-9.16,0-17.4Z" style="fill:#74ED96"></path></g><g id="freepik--book--inject-21"><polygon points="31.73 369.37 98.1 406.73 199.87 348.16 133.51 310.79 31.73 369.37" style="fill:#74ED96"></polygon><polygon points="31.73 369.37 98.1 406.73 199.87 348.16 133.51 310.79 31.73 369.37" style="opacity:0.4"></polygon><path d="M98.81,404,34.68,367.67c1.59-4.52,1.46-6.54-.35-12.55l63.75,35.95S99.24,391.64,98.81,404Z" style="fill:#f5f5f5"></path><path d="M95,386.14a12.82,12.82,0,0,1,5.87,10.07v8.53c0,3.71-2.61,5.22-5.85,3.37L31.74,372.29v-2.92l62.45,35.15c1.94,1.11,3.51.2,3.5-2l-.06-7.66a7.7,7.7,0,0,0-3.53-6L31.71,353.62v-3.3Z" style="fill:#74ED96"></path><path d="M95,386.14a12.82,12.82,0,0,1,5.87,10.07v8.53c0,3.71-2.61,5.22-5.85,3.37L31.74,372.29v-2.92l62.45,35.15c1.94,1.11,3.51.2,3.5-2l-.06-7.66a7.7,7.7,0,0,0-3.53-6L31.71,353.62v-3.3Z" style="opacity:0.25"></path><path d="M31.71,350.32l101.77-58.57,63.25,35.82a12.88,12.88,0,0,1,5.87,10.07v8.53c0,1.85-.65,3.15-1.71,3.76L99.13,408.51c1.06-.61,1.71-1.92,1.71-3.77v-8.53A12.88,12.88,0,0,0,95,386.14Z" style="fill:#74ED96"></path><path d="M99.11,390.48a11.92,11.92,0,0,1,1.73,5.73v8.53c0,1.85-.65,3.16-1.71,3.77L200.9,349.93c1.06-.61,1.71-1.91,1.71-3.76v-8.53a11.8,11.8,0,0,0-1.72-5.73Z" style="fill:#74ED96"></path><path d="M99.11,390.48a11.92,11.92,0,0,1,1.73,5.73v8.53c0,1.85-.65,3.16-1.71,3.77L200.9,349.93c1.06-.61,1.71-1.91,1.71-3.76v-8.53a11.8,11.8,0,0,0-1.72-5.73Z" style="opacity:0.15"></path><path d="M187.13,339.73c1.91,8.25,1.89,12.12,0,18.16l-4.84,2.81c1.86-6.05,1.88-9.92,0-18.16Z" style="fill:#74ED96"></path><path d="M120.38,378.25c1.9,8.24,1.88,12,0,18l-4.84,2.8c1.86-6.05,1.88-9.8,0-18Z" style="fill:#74ED96"></path><g style="opacity:0.4"><path d="M187.13,339.73c1.91,8.25,1.89,12.12,0,18.16l-4.84,2.81c1.86-6.05,1.88-9.92,0-18.16Z" style="fill:#fff"></path><path d="M120.38,378.25c1.9,8.24,1.88,12,0,18l-4.84,2.8c1.86-6.05,1.88-9.8,0-18Z" style="fill:#fff"></path></g></g><g id="freepik--book--inject-21"><path d="M34.12,346.21l2.66-1.42-2.42-.58A1.82,1.82,0,0,0,34.12,346.21Z" style="fill:#74ED96"></path><path d="M34.12,346.21l2.66-1.42-2.42-.58A1.82,1.82,0,0,0,34.12,346.21Z" style="opacity:0.5"></path><path d="M104.55,381.68a6,6,0,0,1-5.41,0l-60.69-35L129.31,295l2.12-1.22L192.12,328c1.49.86,1.49,2.27,0,3.12Z" style="fill:#74ED96"></path><path d="M81.76,316.33,60.59,328.51l-13.7-7.91L31,329.81v10.64c0,1.39,1.56,3.38,2.13,3.05a15.25,15.25,0,0,1,3.05,1.08,23.15,23.15,0,0,1,4.4,3.25l48.63-27.22Z" style="fill:#74ED96"></path><path d="M81.76,316.33,60.59,328.51l-13.7-7.91L31,329.81v10.64c0,1.39,1.56,3.38,2.13,3.05a15.25,15.25,0,0,1,3.05,1.08,23.15,23.15,0,0,1,4.4,3.25l48.63-27.22Z" style="opacity:0.15"></path><path d="M39.7,331.09v11.55l-.19-.12a5.5,5.5,0,0,0-2.59-.81,2.69,2.69,0,0,0-1.71.4V328.5Z" style="fill:#37474f"></path><path d="M42.67,346.6a3.5,3.5,0,0,0-.76-2,6.08,6.08,0,0,0-.75-.86c-.08-.08-.17-.16-.25-.25l-.34-.27-.27-.21c-.2-.15-.41-.28-.6-.41V331.15l3,1.71V346.6Z" style="fill:#e0e0e0"></path><path d="M31,340.45c0,1.39,1.56,3.38,2.13,3.05h0l2.13-1.38v-8.78l-2.13-3.67-1.17-.41-1,.55Z" style="opacity:0.4"></path><path d="M101.85,367v13.17a3.58,3.58,0,0,1-1.8-.43l-6.66-3.84L42.67,346.6V332.8Z" style="fill:#ebebeb"></path><path d="M190.6,317.49v9.94a4,4,0,0,1-1.79,3.13L110.3,375.88l-6.65,3.84a3.63,3.63,0,0,1-1.8.43V368.46Z" style="fill:#f5f5f5"></path><path d="M129.31,277.9,38.45,330.37v1.22c0,.67-1,.92-2.12.25s-2.12-1.52-2.12-2.69L34.1,328l92.57-53.45.38-.22a1.31,1.31,0,0,1,.15.57v.56C127.2,276.14,128.14,277.22,129.31,277.9Z" style="fill:#74ED96"></path><path d="M129.31,277.9,38.45,330.37v1.22c0,.67-1,.92-2.12.25s-2.12-1.52-2.12-2.69L34.1,328l92.57-53.45.38-.22a1.31,1.31,0,0,1,.15.57v.56C127.2,276.14,128.14,277.22,129.31,277.9Z" style="opacity:0.1"></path><path d="M99.14,365.41,39.79,331.15c-.75-.4-1.44-.72-1.73-.56l.39-.22,90.86-52.47,1.06-.61a3.39,3.39,0,0,1,2.86.43l58.89,34c1.49.87,1.49,2.27,0,3.12l-87.57,50.57A5.93,5.93,0,0,1,99.14,365.41Z" style="fill:#74ED96"></path><path d="M127.05,274.33l-.38.22L34.1,328a.76.76,0,0,0-.2-.25l-.31-.18-.67-.39-.82-.47a.84.84,0,0,0-1.05.09.31.31,0,0,0-.11.09,2.44,2.44,0,0,0-.28.39,2.49,2.49,0,0,0-.24.52c-.07.19-.13.39-.19.6s-.09.46-.13.71a2.82,2.82,0,0,0-.05.43c0,.11,0,.21,0,.34s0,.53,0,.81v-2.6a5.52,5.52,0,0,1,2.7-4.16l87.58-50.57a5.44,5.44,0,0,1,4.82-.35l1.1.65,0,0,.46.27h0A1,1,0,0,1,127.05,274.33Z" style="fill:#74ED96"></path><path d="M99.14,381.68l-3.66-2.12L40.53,347.83a3.59,3.59,0,0,0-.75-2,8,8,0,0,0-2.41-2.11,5.47,5.47,0,0,0-2.59-.81,2.75,2.75,0,0,0-1.7.56,9.38,9.38,0,0,1-1-4.55H30c0,2.88.94,5.76,2.11,6.42l1,.62c.59.34,1.06.36,1.06,0v-.56c0-.63.95-.6,2.12.08s2.12,1.73,2.12,2.35v.57c0,.32.81,1,1.8,1.61l53.14,30.68,5.75,3.32h0a5.64,5.64,0,0,0,2.7.64v-2.41A5.46,5.46,0,0,1,99.14,381.68Z" style="fill:#74ED96"></path><path d="M99.14,381.68l-3.66-2.12L40.53,347.83a3.59,3.59,0,0,0-.75-2,8,8,0,0,0-2.41-2.11,5.47,5.47,0,0,0-2.59-.81,2.75,2.75,0,0,0-1.7.56,9.38,9.38,0,0,1-1-4.55H30c0,2.88.94,5.76,2.11,6.42l1,.62c.59.34,1.06.36,1.06,0v-.56c0-.63.95-.6,2.12.08s2.12,1.73,2.12,2.35v.57c0,.32.81,1,1.8,1.61l53.14,30.68,5.75,3.32h0a5.64,5.64,0,0,0,2.7.64v-2.41A5.46,5.46,0,0,1,99.14,381.68Z" style="opacity:0.30000000000000004"></path><path d="M99.16,365.42h0l-3.66-2.12L53.26,338.93l-13.47-7.78c-1-.56-1.74-.76-1.79-.47a0,0,0,0,0,0,0v.62c0,.67-1,.67-2.12,0a2.83,2.83,0,0,1-1.66-2.13v-.66a1,1,0,0,0-.31-.79l-.31-.18c-.19-.1-.42-.24-.67-.39l-.82-.47a.84.84,0,0,0-1.05.09.31.31,0,0,0-.11.09,1.44,1.44,0,0,0-.18.25.45.45,0,0,0-.1.14,2.49,2.49,0,0,0-.24.52c-.07.19-.13.39-.19.6s-.09.46-.13.71a2.82,2.82,0,0,0-.05.43c0,.11,0,.21,0,.34s0,.53,0,.81V339h2.08v-8.26c0-.22,0-.44,0-.64l0-.52a.11.11,0,0,1,0-.06c.19,1.66,1.77,3.14,3.14,3.92a5.3,5.3,0,0,0,2.54.79,2.75,2.75,0,0,0,1.86-.69l.19.1.37.22L93.39,364.5l5.75,3.32h0l0,0a5.61,5.61,0,0,0,2.66.61v-2.4A5.57,5.57,0,0,1,99.16,365.42Z" style="fill:#74ED96"></path><path d="M99.16,365.42h0l-3.66-2.12L53.26,338.93l-13.47-7.78c-1-.56-1.74-.76-1.79-.47a0,0,0,0,0,0,0v.62c0,.67-1,.67-2.12,0a2.83,2.83,0,0,1-1.66-2.13v-.66a1,1,0,0,0-.31-.79l-.31-.18c-.19-.1-.42-.24-.67-.39l-.82-.47a.84.84,0,0,0-1.05.09.31.31,0,0,0-.11.09,1.44,1.44,0,0,0-.18.25.45.45,0,0,0-.1.14,2.49,2.49,0,0,0-.24.52c-.07.19-.13.39-.19.6s-.09.46-.13.71a2.82,2.82,0,0,0-.05.43c0,.11,0,.21,0,.34s0,.53,0,.81V339h2.08v-8.26c0-.22,0-.44,0-.64l0-.52a.11.11,0,0,1,0-.06c.19,1.66,1.77,3.14,3.14,3.92a5.3,5.3,0,0,0,2.54.79,2.75,2.75,0,0,0,1.86-.69l.19.1.37.22L93.39,364.5l5.75,3.32h0l0,0a5.61,5.61,0,0,0,2.66.61v-2.4A5.57,5.57,0,0,1,99.16,365.42Z" style="opacity:0.30000000000000004"></path><path d="M193.24,313.25v2.45a1.88,1.88,0,0,1-1.07,1.54l0,0L110.3,364.5l-5.75,3.32h0a5.62,5.62,0,0,1-2.69.63v-2.4a5.55,5.55,0,0,0,2.7-.64l3.65-2.12h0l83.91-48.45A1.88,1.88,0,0,0,193.24,313.25Z" style="fill:#74ED96"></path><path d="M193.24,313.25v2.45a1.88,1.88,0,0,1-1.07,1.54l0,0L110.3,364.5l-5.75,3.32h0a5.62,5.62,0,0,1-2.69.63v-2.4a5.55,5.55,0,0,0,2.7-.64l3.65-2.12h0l83.91-48.45A1.88,1.88,0,0,0,193.24,313.25Z" style="opacity:0.2"></path><path d="M193.24,329.52V332a1.88,1.88,0,0,1-1.07,1.54l0,0L110.3,380.76l-5.75,3.32h0a5.63,5.63,0,0,1-2.69.64v-2.41a5.44,5.44,0,0,0,2.7-.64l3.65-2.11h0l83.91-48.46A1.86,1.86,0,0,0,193.24,329.52Z" style="fill:#74ED96"></path><path d="M193.24,329.52V332a1.88,1.88,0,0,1-1.07,1.54l0,0L110.3,380.76l-5.75,3.32h0a5.63,5.63,0,0,1-2.69.64v-2.41a5.44,5.44,0,0,0,2.7-.64l3.65-2.11h0l83.91-48.46A1.86,1.86,0,0,0,193.24,329.52Z" style="opacity:0.2"></path></g><g id="freepik--book--inject-21"><polygon points="40.43 321.06 109.25 360.26 200.77 307.74 131.96 268.53 40.43 321.06" style="fill:#74ED96"></polygon><polygon points="40.43 321.06 109.25 360.26 200.77 307.74 131.96 268.53 40.43 321.06" style="fill:#fff;opacity:0.2"></polygon><path d="M109.88,357.86,43,319.57c1.4-4,1.29-8.58-.29-13.86l66.52,38S110.26,347,109.88,357.86Z" style="fill:#f5f5f5"></path><path d="M106.52,339.35a11.24,11.24,0,0,1,5.14,8.84v10.32c0,3.26-2.3,4.58-5.14,2.95L40.44,323.62v-2.56l65.38,37.25c1.7,1,3.08.18,3.08-1.77l0-9.57a6.75,6.75,0,0,0-3.08-5.3L40.44,304.4v-2.9Z" style="fill:#74ED96"></path><path d="M106.52,339.35a11.24,11.24,0,0,1,5.14,8.84v10.32c0,3.26-2.3,4.58-5.14,2.95L40.44,323.62v-2.56l65.38,37.25c1.7,1,3.08.18,3.08-1.77l0-9.57a6.75,6.75,0,0,0-3.08-5.3L40.44,304.4v-2.9Z" style="fill:#fff;opacity:0.4"></path><path d="M40.43,301.51,132,249,198,286.82a11.33,11.33,0,0,1,5.14,8.84V306a3.59,3.59,0,0,1-1.51,3.3l-91.52,52.53a3.58,3.58,0,0,0,1.5-3.3V348.18a11.29,11.29,0,0,0-5.13-8.84Z" style="fill:#74ED96"></path><path d="M40.43,301.51,132,249,198,286.82a11.33,11.33,0,0,1,5.14,8.84V306a3.59,3.59,0,0,1-1.51,3.3l-91.52,52.53a3.58,3.58,0,0,0,1.5-3.3V348.18a11.29,11.29,0,0,0-5.13-8.84Z" style="fill:#fff;opacity:0.85"></path><path d="M110.16,343.15a10.39,10.39,0,0,1,1.5,5v10.34a3.58,3.58,0,0,1-1.5,3.3l91.52-52.53a3.59,3.59,0,0,0,1.51-3.3V295.66a10.55,10.55,0,0,0-1.51-5Z" style="fill:#74ED96"></path><path d="M110.16,343.15a10.39,10.39,0,0,1,1.5,5v10.34a3.58,3.58,0,0,1-1.5,3.3l91.52-52.53a3.59,3.59,0,0,0,1.51-3.3V295.66a10.55,10.55,0,0,0-1.51-5Z" style="fill:#fff;opacity:0.6000000000000001"></path><path d="M189.61,297.48c1.66,7.23,1.64,13.48,0,18.78l-4.25,2.45c1.64-5.3,1.66-11.54,0-18.77Z" style="fill:#fff"></path><path d="M128.82,332.58c1.66,7.23,1.64,13.48,0,18.78l-4.25,2.45c1.64-5.3,1.66-11.54,0-18.77Z" style="fill:#fff"></path></g></g><g id="freepik--character--inject-21"><g id="freepik--bottom--inject-21"><path d="M148.05,345.4s-6.92,10.59-8.22,15.05c-1.35,4.64-2.88,5.94-3.26,11.23-.08,1.15,0,3.52-.07,4.45a1.37,1.37,0,0,1-1.62,1.39c-2.18,0-4.75-4.64-5.42-9.18a124,124,0,0,1-.69-15.62,6.49,6.49,0,0,1,1.43-3.14,10.19,10.19,0,0,1,1.35-1.49c1.17-1.89,2.41-5.7,3.62-8.26Z" style="fill:#c8856a"></path><path d="M123.69,356.09a4.88,4.88,0,0,0-.92,1.42c-.27.92,1.17,4.49,1.76,5.81a7.51,7.51,0,0,1,.31,5.69,13.11,13.11,0,0,0,1.26,9.08,21.26,21.26,0,0,0,8.91,9.05c4.7,2.66,7.06.58,7.06.58s2.13-2,1.42-3.23S123.69,356.09,123.69,356.09Z" style="fill:#263238"></path><path d="M131.55,348.09c-.15,0-.41-.14-.92.24-.19.14-1.63,2.16-2.67,3.16s-3.57,2.76-4.27,4.6c.31,3.93,3.23,7.27,3,10.86s-1.16,7.61,3.29,13.07,9.95,7.15,12.22,6.48,2.58-2.83.72-7.47c-2-4.92-1.83-14.6-1.83-14.61a30.37,30.37,0,0,1,.4-4,25,25,0,0,1,1.28-3.8,3,3,0,0,0,.16-1.82,3.09,3.09,0,0,0-1.26-1.35,13.8,13.8,0,0,0-2.58-1.55,4.59,4.59,0,0,0-3-.3c-.71.19-1.34.6-2.07.72a2.67,2.67,0,0,1-2.56-1.07,2.19,2.19,0,0,1-.16-2.56A5.85,5.85,0,0,1,131.55,348.09Z" style="fill:#37474f"></path><path d="M127.54,375.91a9,9,0,0,1,8.87-2.41c5.77,1.32,7.1,4.64,7.58,6.53.58,2.25.82,6.14-1.81,6.66-2.85.55-5.75-.46-9.9-3.82S127.54,375.91,127.54,375.91Z" style="fill:#fafafa"></path><path d="M132.58,359.12a.62.62,0,0,0,.53.11c1-.24,5.94-.15,8.11,3,.42-.2.47-.73.18-1.55-2.75-2.72-7.43-2.83-8.63-2.53a.54.54,0,0,0-.4.7A.62.62,0,0,0,132.58,359.12Z" style="fill:#fafafa"></path><path d="M141,365.62a1.74,1.74,0,0,0,0-1.63,11.26,11.26,0,0,0-8.28-2.2.55.55,0,0,0-.4.7.62.62,0,0,0,.21.31.62.62,0,0,0,.53.11C134.1,362.68,138.79,362.77,141,365.62Z" style="fill:#fafafa"></path><path d="M141.62,373.78a3.25,3.25,0,0,0-.27-2.21c-2.76-2.61-7.33-2.71-8.52-2.42a.56.56,0,0,0-.4.7.69.69,0,0,0,.21.31.66.66,0,0,0,.53.12C134.22,370,139.68,370.13,141.62,373.78Z" style="fill:#fafafa"></path><path d="M132.62,366.48a.62.62,0,0,0,.53.11c1-.24,5.83-.15,8,2.86a2,2,0,0,0-.09-1.78,11.29,11.29,0,0,0-8.29-2.2.55.55,0,0,0-.4.7A.62.62,0,0,0,132.62,366.48Z" style="fill:#fafafa"></path><path d="M150.64,362.46s-.19,11-.27,19.42c-.06,6.15,4.38,9.23,7.94,13.53.77.94,2.55,2.69,3.19,3.44a1.42,1.42,0,0,1-.24,2.2c-1.7,1.51-8.71,1.69-12.52-1.3s-7.17-9.2-9.42-11.58c-.85-.9-1.64-1.81-2.39-2.77s-.49-1.79-.52-2.82c0-.49.11-1.83.11-1.83-.45-2.43-1.79-9.84-2.47-12.21Z" style="fill:#c8856a"></path><path d="M134.75,391.52a5.29,5.29,0,0,0,.11,1.75c.36.94,3.83,3.07,5.15,3.81a8,8,0,0,1,3.86,4.6c1.17,3,3.76,5.27,6.78,6.86a22.92,22.92,0,0,0,13.23,2.17c5.65-.64,6.33-3.83,6.33-3.83s.52-3-.84-3.58S134.75,391.52,134.75,391.52Z" style="fill:#263238"></path><path d="M136.34,380c-.15.06-.44.13-.63.76-.07.24,0,2.82-.26,4.29s-1.27,4.5-.7,6.48c2.74,3.11,7.31,4.14,9.34,7.32s3.82,7.12,11,9,12.9-.06,14.4-2,.4-3.95-4.1-6.72c-4.78-2.93-10.75-11.16-10.76-11.17a32.73,32.73,0,0,1-2.22-3.64,27.68,27.68,0,0,1-1.31-4,3.06,3.06,0,0,0-1-1.62,3.26,3.26,0,0,0-1.91-.36,13.92,13.92,0,0,0-3.16.27,4.8,4.8,0,0,0-2.69,1.55c-.48.59-.76,1.33-1.29,1.87a2.85,2.85,0,0,1-2.84.67,2.31,2.31,0,0,1-1.75-2.06A5,5,0,0,1,136.34,380Z" style="fill:#37474f"></path><path d="M150.5,405.83s.26-5,6-7.44,8.92-.44,10.52.85c1.9,1.54,4.56,4.67,2.66,6.71-2.05,2.2-5.14,3.12-10.76,2.84S150.5,405.83,150.5,405.83Z" style="fill:#fafafa"></path><path d="M144.16,388.63a.64.64,0,0,0,.52-.22c.69-.82,4.92-3.76,8.72-2.47.23-.43-.07-.9-.83-1.41-4-.61-8.06,2.16-8.88,3.14a.58.58,0,0,0,.1.84A.63.63,0,0,0,144.16,388.63Z" style="fill:#fafafa"></path><path d="M155.41,388.93a1.86,1.86,0,0,0-1-1.39,11.87,11.87,0,0,0-8.39,3.21.58.58,0,0,0,.11.84.72.72,0,0,0,.37.13.68.68,0,0,0,.52-.23C147.69,390.7,151.71,387.91,155.41,388.93Z" style="fill:#fafafa"></path><path d="M161,395.45a3.46,3.46,0,0,0-1.61-1.7c-4-.51-7.91,2.2-8.73,3.17a.56.56,0,0,0,.11.83.72.72,0,0,0,.37.13.66.66,0,0,0,.52-.23C152.42,396.79,157.1,393.56,161,395.45Z" style="fill:#fafafa"></path><path d="M148.84,394.8a.66.66,0,0,0,.52-.23c.68-.8,4.83-3.69,8.59-2.5a2.16,2.16,0,0,0-1.2-1.45,11.83,11.83,0,0,0-8.39,3.22.57.57,0,0,0,.11.83A.72.72,0,0,0,148.84,394.8Z" style="fill:#fafafa"></path><path d="M127.31,277.52s24.88,14,34.78,25.69c3.54,4.19,5.68,7.8,1,17.73-3.58,7.64-9.46,15.95-15,25.79l-43.27-58.46Z" style="fill:#37474f"></path><path d="M148.84,345.4C142,338.31,121.54,299,121.54,299l1-.1c5.83-2.1,8.66-9.63,8.66-9.63a13.17,13.17,0,0,1-3.11,9.62c3,2.55,9.92,8.35,20.47,17.4,1.84,1.58,5.56,4.58,5,10-.79,7-1.48,14-1.48,14Z" style="fill:#263238"></path><path d="M127.34,277.52h0l-48,4.16c.53,5.68.42,14.24,4.2,20.78,5.23,9.07,9.12,9.42,21.69,16.11,11,5.86,20.55,11.58,23,13.11,1.83,1.14,1.2,5.38,1.44,10.43.25,5.3.62,8.26,2.76,19.68,1,5.55,2.17,10.36,2.17,10.36s9.12,1.62,16.19-1.58c0,0,.73-27.69.83-34.48.08-5.81.82-11.17-3.32-15.79-3.54-3.95-25.69-21.44-25.69-21.44S130.61,288.14,127.34,277.52Z" style="fill:#37474f"></path><path d="M89.39,281.53l.65-.06c-.25,7.64.41,13.49,5.53,19.47,3.65-2.13,3.08-4.37,2-8.37-.31-1.2-.67-2.57-.95-4.1a40.25,40.25,0,0,1-.71-7.49l.66-.05a38.75,38.75,0,0,0,.69,7.43c.27,1.5.62,2.86.93,4.05,1,4,1.73,6.66-2.22,9a37.15,37.15,0,0,0,4.21,4c7.8,6.38,18.91,14,25.54,18.55,2.32,1.59,4.15,2.85,5.09,3.54,3.84,2.81,3.85,4.32,3.26,11-.51,5.87,2.21,25.79,3.74,34l-.66,0c-1.54-8.34-4.24-28.11-3.72-34,.59-6.79.45-7.94-3-10.46-.93-.69-2.76-1.94-5.07-3.53-6.65-4.56-17.77-12.18-25.59-18.58C90.22,298.06,89.08,291.2,89.39,281.53Z" style="fill:#263238"></path></g><g id="freepik--top--inject-21"><g id="freepik--Arm--inject-21"><path d="M114.81,239.4c2.2,7.57,7.86,19.13,10.72,26.11,1.51,3.65,2.94,4.94,8,3.78s19-8.32,21.8-9.72,3.87-2.1,5.62-2.4a6.08,6.08,0,0,0,4.2-2,23.63,23.63,0,0,0,2.94-4.81c1.2-1.1,2.37-2.51,2.34-3.22a2,2,0,0,0-.5-1.21,4.45,4.45,0,0,0,1.17-1.93,2,2,0,0,0-.6-1.5c1.56-1.62,1.85-2.06,1.53-2.87s-.93-2.66-.93-2.66a32,32,0,0,0,5.48.15,3,3,0,0,0,2.56-2.49c.15-.54-7.12-1.59-9.05-1.55-1.6,0-2.29-.4-3.66.9s-5.27,3.54-5.85,4.2-.8,2.6-2.15,6c-1,2.42-2.31,3.86-5.34,5-5.23,2-16.17,4.31-16.17,4.31s-4-13.82-4.84-16.77c-2.34-8.41-5.82-17.9-16.25-17.13Z" style="fill:#c8856a"></path><path d="M115,219c4.53-.35,9.88-.58,13.48,7s7.38,22.32,7.38,22.32-1.74,2.79-7.26,5.41-7.91,1.69-7.91,1.69l-6.28-15.87Z" style="fill:#37474f"></path><path d="M137,253.51a15.11,15.11,0,0,0-7.25,4.2,12.47,12.47,0,0,1,6.77-5.86Z" style="fill:#af6152"></path><path d="M162.27,239.61a6.83,6.83,0,0,0,3.75-2.35c.91-1.2,1.83-2.57,2.28-2.41.75.27,1.59,2.26.29,4.33s-3.24,4.06-3.55,4.65a10.5,10.5,0,0,0-.37,3.56,6.33,6.33,0,0,1-4.52,5.66,5.87,5.87,0,0,0,3.92-1.9c2-2,1.49-4.9,1.65-6.15s.2-1.51,1.68-3.17,3.07-3.47,2.32-6-1.81-1.87-2.33-1.34S164.8,238.93,162.27,239.61Z" style="fill:#af6152"></path><path d="M171.14,237l-1.65.14.3.53a1.92,1.92,0,0,1,1.87.88Z" style="fill:#af6152"></path><path d="M170.54,242.5c-.49.55-2.12,2.15-2.45,2.48s-1-.1-1.17-1a3.05,3.05,0,0,1,.36-2.21,3.31,3.31,0,0,0-.75,2.24c.14,1.19.8,1.6,1.29,1.65S169.48,243.66,170.54,242.5Z" style="fill:#af6152"></path><path d="M170,245.93c-.36.41-1,.9-2,2-.59.65-.95,1.09-1.4.84a2.18,2.18,0,0,1-.39-2.48,7.67,7.67,0,0,1,1-1.44l-.31-.31a5.83,5.83,0,0,0-1.4,2.38c-.25,1.2.48,2.51,1.09,2.42s.93-.48,1.75-1.45S170,245.93,170,245.93Z" style="fill:#af6152"></path><path d="M166.9,249.05c-.21.3-.33,1.1.2,1.34a1.24,1.24,0,0,0,1,0,1.06,1.06,0,0,1-1.21.29c-.64-.29-.68-1.08-.56-1.69Z" style="fill:#af6152"></path></g><path d="M127.83,238.88c-.48-13.49-6-19-12.88-19.87,0,0-8.36.68-13.82,1.41A77.83,77.83,0,0,0,86,224.47c-2.66,1.2-6.51,7.84-7.09,17.35-.42,6.75-1.54,15.34-.74,27.33.52,7.81.61,13.77,1.91,24,9.28,3.68,40.08.15,48.18-15.43-.82-2.37-1-10.38-.89-14.91S128,243.13,127.83,238.88Z" style="fill:#455a64"></path><g id="freepik--head--inject-21"><path d="M99.41,214c-.18-3.81-3.43-8.16-4.71-11.63s-1.9-5.89-1.36-8.82c.32-1.73,1.71-4,3.07-4.31a8.19,8.19,0,0,1,7.19-9.42,27.22,27.22,0,0,0,3.71-.56c1.48-.42,1.93-1.51,3.19-2.34,2.15-1.43,5.45-1.06,6.4,1.6,1.51-1.52,3.27-1.27,5.24-.5a3.51,3.51,0,0,1,2.2,4.26,3.67,3.67,0,0,1,5.23,2.66c0,1.21-.33,2.18.32,3.33.73,1.3,2.38,1.48,3,.57.08,1.72-.73,2.92-2.54,2.61a3.83,3.83,0,0,1,.09,3.26,3.53,3.53,0,0,1-3.44,2,5.42,5.42,0,0,1-3.5,4.14c-2.92,1-6,1-9.07,1.29l-3.62.31c-.21,0-1.28,0-1.43.12Z" style="fill:#263238"></path><path d="M95.47,208.57a3.63,3.63,0,0,0,4.42.4l-1.68,12.31c1.41,5.52,10.31,7.49,13.77,6.4s3.28-3.09,1.51-6.3l.47-2a37.08,37.08,0,0,0,4.47.34c3,0,5.47-2.16,6.69-5.23A33.11,33.11,0,0,0,127,202a11.13,11.13,0,0,1,.22-3.1,14.68,14.68,0,0,0-.11-6.71c-2.91-3-10.26-4.77-17.73-1.39.3,4.24-1.7,7.32-4.9,8.54,0,1.13-.2,4-2,3.69-1.32-.19-1.21-1.86-2.39-3.49s-4.3-2.4-5.79-.4A7.21,7.21,0,0,0,95.47,208.57Z" style="fill:#c8856a"></path><path d="M108.65,197.61,99.55,199a3.6,3.6,0,0,1,1.1,1.58l7.9-.85Z" style="fill:#263238"></path><path d="M129.42,197.65a17.79,17.79,0,0,0-6.45.1c-1.9.58-2.58,1.22-3.62,1.23s-1.79-.66-3.77-1.24a20.56,20.56,0,0,0-6.91-.14,1.12,1.12,0,0,0-.78,1.06c0,.88.59,1,.7,1.74.23,2.71.46,5.79,4,5.94,6.43.24,4.53-6.17,6.91-5.76.88.21.7,1.91,1.22,3.15a5.1,5.1,0,0,0,.81,1.36,4,4,0,0,0,3.2,1.27,3.78,3.78,0,0,0,3.76-2.45,22,22,0,0,0,.78-3.47c.21-.63.71-.83.79-1.71C130.09,198.19,129.74,197.69,129.42,197.65Zm-12.58,4.83a4.25,4.25,0,0,1-1,1.85h0c-1.53,1.67-5.39,1.41-6-1.11h0c0-.14-.08-.26-.11-.39h0c-.23-1-.5-3.23.08-3.85,1-1,5.73-.89,7.08.74A4.26,4.26,0,0,1,116.84,202.48Zm11.34-.37a4,4,0,0,1-1.89,3c-1.38.79-3.9.08-4.35-1.09a5.3,5.3,0,0,1-.38-4.26,5.44,5.44,0,0,1,3.19-1.33,4.79,4.79,0,0,1,3.49.61C128.64,199.4,128.39,201.19,128.18,202.11Z" style="fill:#37474f"></path><path d="M123.4,207.16l-4.68,1.77-.68-6.87c.31-.93.62-1.61,1.43-1.48.06.07.13.13.18.2s.33.38.5.61c.27.39.55.83.84,1.31.41.69.84,1.45,1.25,2.24l.56,1.07c0,.09.09.17.14.26Z" style="fill:#af6152"></path><path d="M114,219.39c-4.58-1.11-8-2-10.06-5.71a28.86,28.86,0,0,1-2.14-5.84,22.84,22.84,0,0,0,1.16,7.14c.91,2.29,3.45,4.53,10.66,6Z" style="fill:#af6152"></path><path d="M114.46,201.92a1.33,1.33,0,0,1-1.41,1.27,1.37,1.37,0,1,1,1.41-1.27Z" style="fill:#263238"></path><path d="M114.43,195.82l-3.15.7a1.69,1.69,0,0,1,1.26-2A1.58,1.58,0,0,1,114.43,195.82Z" style="fill:#263238"></path><path d="M113,209.49l4.2,1.81a2.4,2.4,0,0,1-3.09,1.21A2.23,2.23,0,0,1,113,209.49Z" style="fill:#af6152"></path><path d="M115.32,212.66a2.7,2.7,0,0,0-2.54-2.55,2.2,2.2,0,0,0,1.29,2.4A2.16,2.16,0,0,0,115.32,212.66Z" style="fill:#ffa8a7"></path><path d="M126.26,197.17l-3.16-.75a1.55,1.55,0,0,1,1.9-1.23A1.71,1.71,0,0,1,126.26,197.17Z" style="fill:#263238"></path><path d="M124.7,202.16a1.32,1.32,0,1,1-1.08-1.57A1.35,1.35,0,0,1,124.7,202.16Z" style="fill:#263238"></path></g><g id="freepik--Laptop--inject-21"><path d="M169.1,294.52v.6a2.5,2.5,0,0,1-1.27,2.16l-44,24.94a2.43,2.43,0,0,1-1.25.32,2.49,2.49,0,0,1-1.26-.34L97.53,308.27a2.52,2.52,0,0,1-1.23-2.18v-.85h0a.32.32,0,0,0,.16.28l26.1,15.35Z" style="fill:#e0e0e0"></path><path d="M122.57,320.88v1.67a2.54,2.54,0,0,0,1.25-.33l44-24.94a2.51,2.51,0,0,0,1.28-2.16v-.61Z" style="opacity:0.1"></path><path d="M96.52,305.44a.23.23,0,0,1,0-.4l45.27-25.66a1.38,1.38,0,0,1,.74-.18,1.53,1.53,0,0,1,.66.19l25.7,15.12-46.33,26.26Z" style="fill:#f0f0f0"></path><path d="M142.54,279.3a1.27,1.27,0,0,1,.6.18l25.57,15-46.14,26.14-26-15.29a.13.13,0,0,1-.06-.12.11.11,0,0,1,.06-.11l45.28-25.66a1.29,1.29,0,0,1,.69-.17m0-.2a1.51,1.51,0,0,0-.8.2L96.48,305a.33.33,0,0,0,0,.58l26.1,15.35,46.53-26.37-25.86-15.2a1.43,1.43,0,0,0-.69-.21Z" style="fill:#e0e0e0"></path><polygon points="122.35 318.67 108.4 310.48 149.56 287.16 163.58 295.31 122.35 318.67" style="fill:#ebebeb"></polygon><polygon points="163.58 295.31 163.04 295.61 149.56 287.77 108.94 310.79 108.41 310.48 149.56 287.16 163.58 295.31" style="fill:#e0e0e0"></polygon><polygon points="115.64 296.14 115.9 296.29 122.74 300.31 135 293.36 135.26 293.21 128.17 289.04 115.64 296.14" style="fill:#e0e0e0"></polygon><polygon points="115.9 296.29 122.74 300.31 135 293.36 128.17 289.34 115.9 296.29" style="fill:#ebebeb"></polygon><g id="freepik--arm--inject-21"><path d="M63.49,268c3.3-10.83,6.49-21.19,9.6-29.34,1.71-4.5,2.76-10.7,12.69-13.47,5.82,5,2.9,17.68,1.74,20.85l-7.67,24.82s1.63,2.23,7.13,8.2c4.69,5.09,7,7,12.57,8.14s6.13.82,9,2.36c1.5.82,4.94,2.72,6.11,3.45s3.16,3.12,5.06,4.79-.69,2.32-2.13,1.76a19.63,19.63,0,0,1-4.25-2.55,25.48,25.48,0,0,0-3.68-1.79,22.9,22.9,0,0,1,.41,4.52c-.06.81,0,1.81-.73,2.35a6.43,6.43,0,0,1-1.76.55,1.25,1.25,0,0,1-.41.75,2.06,2.06,0,0,1-1.48.25,5.91,5.91,0,0,1-.81-.2,1.5,1.5,0,0,1-1,1.09,6.52,6.52,0,0,1-3.48-.18c-.16-.08-1.39-.89-1.75-1.12-.53-.34-1-.54-1.21-.92s.63-1.35,1.31-1.4a6.5,6.5,0,0,1,2.19.34,7.92,7.92,0,0,1-.48-2c-.51-1-4.94-.42-8.73-1.42-2.87-.76-4.81-3.59-6-4.42A170,170,0,0,1,69.05,280.8C61.92,274.76,61.71,273.83,63.49,268Z" style="fill:#c8856a"></path><path d="M108.62,292.67a10.31,10.31,0,0,1,1,2.56l.72.32C110,294.42,109.43,293.05,108.62,292.67Zm-2.6.76a3.66,3.66,0,0,1,.57,1,6.59,6.59,0,0,1,.35,1.12,16.14,16.14,0,0,1,.33,2.33c.08.79.14,1.58.21,2.37a21,21,0,0,1,.07,2.38,9.19,9.19,0,0,0,.28-2.39,21.48,21.48,0,0,0-.1-2.41,10.41,10.41,0,0,0-.45-2.38A4.33,4.33,0,0,0,106,293.43Zm-1.56,3a4.52,4.52,0,0,0-1-2.12,3,3,0,0,1,.43,1.06c.1.38.18.76.25,1.14.13.76.24,1.53.33,2.3.18,1.55.35,3.09.4,4.66a10.92,10.92,0,0,0,.2-2.35,20.62,20.62,0,0,0-.14-2.36A15.46,15.46,0,0,0,104.46,296.41Zm-5.76,4.51a4,4,0,0,1,1,.22,7.38,7.38,0,0,1,.75.37,1.27,1.27,0,0,0,0,.28,1.23,1.23,0,0,0,.19.38,1.37,1.37,0,0,0,.63.49,3.14,3.14,0,0,1-.35-.64,2.06,2.06,0,0,1-.07-.32,1.15,1.15,0,0,1,0-.27l0-.17-.17-.1a3.2,3.2,0,0,0-.9-.27A2,2,0,0,0,98.7,300.92Z" style="fill:#af6152"></path><path d="M86,224.47c-5.15,1.7-9.29,2.89-12,9.92C70.79,242.92,66.68,256,66.68,256s1.26,3.47,7.47,5.38,9.13.44,9.13.44S87,251,88.43,246.45,92.63,228.77,86,224.47Z" style="fill:#37474f"></path></g><path d="M123.27,321.26a3,3,0,0,0,2.56-.18l43.82-24.83a3,3,0,0,0,1.46-2.06l5-28.44a4,4,0,0,0,0-.49,3,3,0,0,0-.86-2.12L129.76,289a2.24,2.24,0,0,0-1.08,1.53Z" style="fill:#263238"></path><path d="M122.57,320.88l.3.17a3,3,0,0,0,.4.21l5.41-30.78a2.24,2.24,0,0,1,1.08-1.53l45.54-25.81a3.08,3.08,0,0,0-.6-.46l-45.63,25.86a2.17,2.17,0,0,0-1.08,1.52Z" style="fill:#455a64"></path><path d="M129.11,289.53l-.7-.41a2.12,2.12,0,0,0-.42.94l-5.42,30.82.3.17a3,3,0,0,0,.4.21l5.41-30.78A2.35,2.35,0,0,1,129.11,289.53Z" style="fill:#37474f"></path><path d="M148.05,295.17c.34-1.91,2.32-4.42,4.44-5.62s3.57-.63,3.23,1.27-2.32,4.42-4.44,5.62S147.72,297.07,148.05,295.17Z" style="fill:#74ED96"></path></g></g></g></g><g id="freepik--speech-bubbles--inject-21"><g id="freepik--speech-bubble--inject-21"><g id="freepik--speech-bubble--inject-21"><path d="M56.64,205.42a20,20,0,0,1,6.09,13.4v2.29a20,20,0,0,1-39.91.73l-.09-2.29a20,20,0,0,1,33.92-14.13Z" style="fill:#fff"></path><path d="M27.09,204.76a21.73,21.73,0,0,0,28.56,32.56l6.23,2.62a1.26,1.26,0,0,0,1.63-1.7l-2.84-6.13a21.73,21.73,0,0,0-33.58-27.35Zm29.55.66a20,20,0,0,1,6.09,13.4l0,2.29a20,20,0,0,1-39.9.73l-.09-2.29a20,20,0,0,1,33.92-14.13Z" style="fill:#e0e0e0"></path><path d="M56.64,205.42a20,20,0,0,1,6.09,13.4l0,2.29a20,20,0,0,1-39.9.73l-.09-2.29a20,20,0,0,1,33.92-14.13Z" style="fill:#fff;opacity:0.7000000000000001"></path></g><path d="M34.64,208.61a16.54,16.54,0,0,1,1.57-1.19,10.67,10.67,0,0,1,1.83-1,11.69,11.69,0,0,1,4.63-.9A10.3,10.3,0,0,1,46,206a7.42,7.42,0,0,1,2.56,1.43,6.32,6.32,0,0,1,1.66,2.26,7.19,7.19,0,0,1,.59,3,7.45,7.45,0,0,1-.47,2.76,7.6,7.6,0,0,1-1.15,2A8.91,8.91,0,0,1,47.67,219l-1.56,1.18a13.42,13.42,0,0,0-1.27,1.09,2.21,2.21,0,0,0-.64,1.21l-.48,3.06H40.18l-.36-3.42a2.84,2.84,0,0,1,.28-1.73A5.58,5.58,0,0,1,41.19,219a15.71,15.71,0,0,1,1.52-1.19,15,15,0,0,0,1.58-1.26A6.84,6.84,0,0,0,45.51,215a4,4,0,0,0,.5-2,3.11,3.11,0,0,0-.29-1.35,3,3,0,0,0-.78-1,3.45,3.45,0,0,0-1.21-.66,4.66,4.66,0,0,0-1.52-.24,6.54,6.54,0,0,0-2,.27,7.9,7.9,0,0,0-1.41.58c-.38.22-.71.42-1,.59a1.3,1.3,0,0,1-.71.26,1.13,1.13,0,0,1-1.09-.63Zm4,22.41a3.22,3.22,0,0,1,.24-1.24,3.05,3.05,0,0,1,.66-1,3.19,3.19,0,0,1,1-.67,3.12,3.12,0,0,1,1.26-.25,3.07,3.07,0,0,1,1.25.25,3.31,3.31,0,0,1,1,.67,3.12,3.12,0,0,1,.69,1A3.23,3.23,0,0,1,45,231a3.19,3.19,0,0,1-.25,1.24A3.17,3.17,0,0,1,43,233.92a3.24,3.24,0,0,1-1.25.24,3.29,3.29,0,0,1-1.26-.24,3,3,0,0,1-1.66-1.66A3.19,3.19,0,0,1,38.61,231Z" style="fill:#74ED96"></path></g><g id="freepik--speech-bubble--inject-21"><g id="freepik--speech-bubble--inject-21"><path d="M160.14,90.6a20,20,0,0,1,6.09,13.4l0,2.29a20,20,0,0,1-39.9.73l-.1-2.29A20,20,0,0,1,160.14,90.6Z" style="fill:#fff"></path><path d="M130.58,89.94a21.73,21.73,0,0,0,28.56,32.56l6.23,2.62a1.26,1.26,0,0,0,1.63-1.7l-2.84-6.12a21.73,21.73,0,0,0-33.58-27.36Zm29.56.66a20,20,0,0,1,6.09,13.4l0,2.29a20,20,0,0,1-39.9.73l-.1-2.29A20,20,0,0,1,160.14,90.6Z" style="fill:#e0e0e0"></path><path d="M160.14,90.6a20,20,0,0,1,6.09,13.4l0,2.29a20,20,0,0,1-39.9.73l-.1-2.29A20,20,0,0,1,160.14,90.6Z" style="fill:#fff;opacity:0.7000000000000001"></path></g><g id="freepik--Bulb--inject-21"><path d="M142.91,114.36h6.63a.49.49,0,0,0,.49-.5.5.5,0,0,0-.49-.5h-6.63a.5.5,0,0,0-.5.5A.5.5,0,0,0,142.91,114.36Z" style="fill:#455a64"></path><path d="M142.41,115.72a.5.5,0,0,1,.5-.5h6.63a.49.49,0,0,1,.49.5,3.81,3.81,0,0,1-7.62,0Z" style="fill:#455a64"></path><path d="M136,100.79a10.31,10.31,0,0,0,5,8.82,2.74,2.74,0,0,1,1.36,2.34.45.45,0,0,0,.45.45h6.81a.44.44,0,0,0,.31-.13.48.48,0,0,0,.13-.32,2.71,2.71,0,0,1,1.37-2.34,10.27,10.27,0,0,0,5-9,10.39,10.39,0,0,0-9.76-10.08A10.26,10.26,0,0,0,136,100.79Z" style="fill:#74ED96"></path><g style="opacity:0.35000000000000003"><path d="M136,100.79a10.31,10.31,0,0,0,5,8.82,2.74,2.74,0,0,1,1.36,2.34.45.45,0,0,0,.45.45h6.81a.44.44,0,0,0,.31-.13.48.48,0,0,0,.13-.32,2.71,2.71,0,0,1,1.37-2.34,10.27,10.27,0,0,0,5-9,10.39,10.39,0,0,0-9.76-10.08A10.26,10.26,0,0,0,136,100.79Z" style="fill:#fff"></path></g><path d="M140.9,103.84a2.48,2.48,0,0,0,1.37.35,4.41,4.41,0,0,0,.79-.08l.13,0,.06.12a7.18,7.18,0,0,1,.57,1.33,17.73,17.73,0,0,1,.58,5.84c0,.36,0,.69,0,1h.53v-1a18.4,18.4,0,0,0-.6-6,8.55,8.55,0,0,0-.51-1.25l-.09-.18.19-.07a6,6,0,0,0,2.18-1.44l.13-.13.13.13a6.06,6.06,0,0,0,.7.62,6.13,6.13,0,0,0,1.48.82l.2.07-.1.18a7.57,7.57,0,0,0-.5,1.25,18.39,18.39,0,0,0-.61,6c0,.35,0,.68,0,1h.52c0-.33,0-.66,0-1a18.16,18.16,0,0,1,.58-5.87,7.93,7.93,0,0,1,.57-1.33l.06-.12.13,0a4.52,4.52,0,0,0,.8.08,2.44,2.44,0,0,0,1.36-.35.8.8,0,0,0,.36-.94,1,1,0,0,0-1-.71,2.46,2.46,0,0,0-1.82,1.19l-.08.11-.13,0a5.16,5.16,0,0,1-1.51-.81,5.47,5.47,0,0,1-.71-.64l-.1-.1.09-.12a3.08,3.08,0,0,0,.65-2.55,1.14,1.14,0,0,0-2.16,0,3.09,3.09,0,0,0,.66,2.55l.08.12-.1.1a5.47,5.47,0,0,1-.71.64,5,5,0,0,1-1.51.81l-.13,0-.07-.11a2.49,2.49,0,0,0-1.83-1.19,1,1,0,0,0-1,.71A.81.81,0,0,0,140.9,103.84Zm8.63-.21.27-.28a1.67,1.67,0,0,1,1.11-.63.48.48,0,0,1,.5.34.33.33,0,0,1-.17.35,2,2,0,0,1-1.09.25h-.23Zm-3.46-2.41a2.4,2.4,0,0,1-.43-1.83.56.56,0,0,1,.58-.4.57.57,0,0,1,.59.4,2.49,2.49,0,0,1-.43,1.83l-.16.26Zm-5,1.84a.48.48,0,0,1,.49-.34,1.71,1.71,0,0,1,1.12.63l.26.28-.39,0h-.22a2,2,0,0,1-1.1-.25S141,103.25,141,103.06Z" style="fill:#fafafa"></path></g></g></g></svg>